inDegrees=no
num_controls=7
num_derivatives=13
num_iterations=133
num_multipliers=7
num_parameters=0
num_slacks=7
num_states=26
objective=4.796772
objective_accelerations=0.464302
objective_balance=0.017709
objective_effort=0.135561
objective_height=4.127655
objective_ligament=0.051544
solver_duration=1556.723978
status=Solve_Succeeded
success=true
DataType=double
version=3
OpenSimVersion=4.4-2022-07-23-0e9fedc
endheader
time	/jointset/ground_pelvis/pelvis_tilt/value	/jointset/ground_pelvis/pelvis_tx/value	/jointset/ground_pelvis/pelvis_ty/value	/jointset/hip_l/hip_flexion_l/value	/jointset/hip_l/hip_adduction_l/value	/jointset/hip_l/hip_rotation_l/value	/jointset/back/lumbar_extension/value	/jointset/patellofemoral_l/patellar_flexion_l/value	/jointset/knee_l/knee_flexion_l/value	/jointset/knee_l/knee_adduction_l/value	/jointset/knee_l/knee_rotation_l/value	/jointset/ankle_l/ankle_angle_l/value	/jointset/subtalar_l/subtalar_angle_l/value	/jointset/ground_pelvis/pelvis_tilt/speed	/jointset/ground_pelvis/pelvis_tx/speed	/jointset/ground_pelvis/pelvis_ty/speed	/jointset/hip_l/hip_flexion_l/speed	/jointset/hip_l/hip_adduction_l/speed	/jointset/hip_l/hip_rotation_l/speed	/jointset/back/lumbar_extension/speed	/jointset/patellofemoral_l/patellar_flexion_l/speed	/jointset/knee_l/knee_flexion_l/speed	/jointset/knee_l/knee_adduction_l/speed	/jointset/knee_l/knee_rotation_l/speed	/jointset/ankle_l/ankle_angle_l/speed	/jointset/subtalar_l/subtalar_angle_l/speed	/forceset/tau_hip_flexion_l	/forceset/tau_hip_adduction_l	/forceset/tau_hip_rotation_l	/forceset/tau_knee_flexion_l	/forceset/tau_ankle_angle_l	/forceset/tau_subtalar_angle_l	/forceset/tau_lumbar_extension	lambda_cid13_p0	lambda_cid13_p1	lambda_cid13_p2	lambda_cid13_p3	lambda_cid13_p4	lambda_cid13_p5	lambda_cid14_p0	/jointset/ground_pelvis/pelvis_tilt/accel	/jointset/ground_pelvis/pelvis_tx/accel	/jointset/ground_pelvis/pelvis_ty/accel	/jointset/hip_l/hip_flexion_l/accel	/jointset/hip_l/hip_adduction_l/accel	/jointset/hip_l/hip_rotation_l/accel	/jointset/back/lumbar_extension/accel	/jointset/patellofemoral_l/patellar_flexion_l/accel	/jointset/knee_l/knee_flexion_l/accel	/jointset/knee_l/knee_adduction_l/accel	/jointset/knee_l/knee_rotation_l/accel	/jointset/ankle_l/ankle_angle_l/accel	/jointset/subtalar_l/subtalar_angle_l/accel	gamma_cid13_p0	gamma_cid13_p1	gamma_cid13_p2	gamma_cid13_p3	gamma_cid13_p4	gamma_cid13_p5	gamma_cid14_p0
0.5	-0.1327939800539596	0.06583499796765749	0.8114527124405128	0.7578468017152344	-0.3745909213983373	-0.0324461775621382	-0.3893438050441024	0.8194554141300022	0.8194554141299989	-0.07578170807507145	-0.1745249026279666	0.3098760159990779	0.1470930473934436	-0.5288407382358533	-0.1132226307118322	-0.3578386995028055	1.772135797349005	0.007530536254746585	0.4943251308185613	-0.32801005757964	1.633108721861473	1.633108721861471	0.2051195462465776	0.0002130242719676634	0.528802719564613	0.2196613571267832	-0.07185192444127381	0.0201454348704819	0.008307031477780951	-0.1922665608259866	-0.02126088929172724	0.01494676070238134	0.09702561164295101	-31.41559120281244	-1.480457211350481	0.5143948262131288	3.556985897169616	-446.7651351044361	-73.22564741609312	-10.48924065131307	0.01896912572239157	0.1690011045610989	-0.3146775105678501	-0.7572630374323649	0.08197508351635498	-0.4924897331086613	1.128722104871474	-1.306068103918523	-1.306068103918523	-0.3656319362651002	0.05163636184149083	-0.7165068131608872	0.06111167475000788	-1.290405250837785e-07	-2.409419040428619e-06	1.21413651908629e-06	-2.458525496149753e-07	-3.14725471295528e-07	-1.892485481958806e-06	-3.221245874062132e-07
0.51	-0.1380802485427815	0.0647114743643937	0.8078594481230376	0.7755267913680555	-0.3745126838389436	-0.02752950317758055	-0.3925676444773802	0.8357182910301056	0.8357182910301056	-0.07375019782418189	-0.1745228897004972	0.3151270751490258	0.1492906581465502	-0.5283488590458656	-0.1114607497698821	-0.3607331400236912	1.763611923129419	0.008110908710573926	0.4889578048696022	-0.3167174965818546	1.619223726272907	1.619223726272908	0.2011755548574901	0.0001819474106013756	0.5213392164857473	0.2198184307590312	-0.07523973033001771	0.02119796928337185	0.007798540048632035	-0.1939171905984707	-0.02299275748104999	0.01598947421636032	0.09971601021352386	-32.00586002626083	-1.808075894283327	0.5416338388089597	3.59569166453007	-448.935757620736	-73.65524069190505	-9.811281819866736	0.07389355423541559	0.1829329299185668	-0.26472961618499	-0.9375010403898232	0.04518699136787836	-0.5669313161069501	1.13557297134254	-1.466094754392331	-1.466094754391996	-0.4101232524693965	-0.03149472466065668	-0.7718519407760176	-0.01310490061452847	-1.172148334076506e-07	-2.302111952779494e-06	1.104109987169261e-06	-2.40378437691033e-07	-2.816776273606384e-07	-1.780402404113934e-06	-3.008187516407186e-07
0.52	-0.1433596789919839	0.0636061998387307	0.8042396589416861	0.7931140319934471	-0.3744288188220412	-0.02266811751057598	-0.3956773483258582	0.8518350420807103	0.8518350420807133	-0.07175839558963089	-0.1745213905445483	0.3203013832910798	0.1514886176143638	-0.5274731303119409	-0.1095728151916678	-0.3631436722780189	1.753585991863105	0.008656027756479454	0.4832673873079467	-0.3051829406196502	1.603883551961675	1.603883551961677	0.1971779429788497	0.0001102699678366022	0.5134525179858177	0.2197311000682102	-0.07862753621876174	0.02225050369626179	0.007290048619483292	-0.1955678203709548	-0.02472462567037269	0.01703218773033929	0.1024064087840966	-32.59503209697645	-2.141776032576804	0.576569821924778	3.623272492956197	-451.112295857291	-74.13505645307688	-9.137596496292591	0.09573903450977403	0.1942118318139521	-0.2178958572561867	-1.057674446778285	0.07492440153199247	-0.5571080556479088	1.177121097755286	-1.597103848451764	-1.597103848451764	-0.376356034175681	0.04351624556181778	-0.8011458973736191	0.01223081013619472	-1.199027661890213e-07	-2.188428373184346e-06	1.166696653610113e-06	-2.241235956334644e-07	-2.861922708888379e-07	-1.739805361427888e-06	-2.992920354565559e-07
0.53	-0.1486284486197836	0.06252037053260409	0.8005982021753654	0.8105936989098074	-0.3743396872503046	-0.0178647056303525	-0.3986705551776421	0.8677912980892913	0.867791298089293	-0.0698071004586677	-0.1745204996391356	0.3253947545719332	0.1536844204509754	-0.5262156968429945	-0.1075779970689905	-0.3650643587449222	1.742109829041896	0.009168566062207386	0.4773728995794079	-0.293426158216737	1.587140332910929	1.587140332910929	0.1930795011896068	7.037805679906321e-05	0.5051560435797771	0.2193912198164694	-0.08209013186921449	0.02350165226142523	0.006761247717162769	-0.1970735286322517	-0.02665642273937611	0.01783970726214407	0.1051182058117113	-33.27365153112904	-2.343889127467655	0.5747861022361888	3.765572623502932	-453.3419163211842	-74.34071833697656	-8.469586128422124	0.1504919173513214	0.2043310300563682	-0.166714417946838	-1.228241657459106	0.03914172148962602	-0.612218885732012	1.179797539618242	-1.746968761905129	-1.746968761905456	-0.4270887612407128	-0.02721924487880853	-0.8538404701131587	-0.06264157479630394	-1.251061582534562e-07	-2.124825946860089e-06	1.255446817829451e-06	-2.125965592172168e-07	-2.968895588795508e-07	-1.735152973847775e-06	-3.047351261803343e-07
0.54	-0.1538826946300409	0.0614549322532166	0.7969400266690677	0.8279514733064224	-0.3742454856602316	-0.01312155857826944	-0.4015452260597852	0.8835733143416614	0.8835733143416615	-0.06789688984758534	-0.1745199031199216	0.3304031726571474	0.1558757156586763	-0.5245684068034772	-0.1054946098438434	-0.3664874202734026	1.729207487914009	0.009670031423792429	0.4712144216798635	-0.2814757466914671	1.569035600719418	1.569035600719416	0.1889610390026791	5.139272807077058e-05	0.4964618788579809	0.218829574286045	-0.08555272751966735	0.02475280082658866	0.006232446814842274	-0.1985792368935487	-0.0285882198083795	0.01864722679394885	0.1078300028393259	-33.95170553550422	-2.552033359568231	0.5807400344475887	3.897250263212914	-455.5795686958718	-74.59849782203278	-7.813071715432448	0.1737103486240165	0.2119256523079188	-0.1183708695715866	-1.342910108114034	0.07270981270339648	-0.6099060898490186	1.215846922226651	-1.869406476604804	-1.869406476604805	-0.3803601137126351	0.04769756202366698	-0.8806839605247693	-0.0321222456005179	-1.330926116523451e-07	-2.116632456069584e-06	1.373143830654773e-06	-2.063002864892392e-07	-3.144272194670871e-07	-1.770269140852949e-06	-3.178894926320476e-07
0.55	-0.159118519799862	0.06041075826701314	0.7932701285925017	0.8451731520277969	-0.3741464712163862	-0.008440977943573107	-0.4042995943237715	0.8991675972827097	0.8991675972827101	-0.06602839466349072	-0.1745194402934652	0.3353227155672609	0.1580600391885646	-0.5225328305491201	-0.1033263489044314	-0.3674071826095293	1.714897990637114	0.0101327416723535	0.4648590124194337	-0.2693803656896896	1.549608935570137	1.549608935570137	0.1847431800338591	4.390459478842287e-05	0.4873915367220022	0.2180002837773327	-0.08888508693703073	0.02606216022078684	0.00568160156816622	-0.2002973896909082	-0.03017712179608863	0.0191955951639071	0.1104264162009269	-34.54385437461787	-2.631961270711926	0.5311762552359143	3.984791200115265	-457.8400900226678	-74.61790036963738	-7.187585769526577	0.2280314740290657	0.2213115154315562	-0.06609184973590936	-1.509531262104288	0.03296893314050799	-0.6550759828743148	1.209014751568314	-2.011039309187633	-2.011039309187445	-0.441978345976241	-0.02436929257300386	-0.9285734361290905	-0.1133976310083118	-1.331713381761109e-07	-2.046048989843896e-06	1.403789529081127e-06	-1.969946411480417e-07	-3.130809243038886e-07	-1.732886969857389e-06	-3.164393026406792e-07
0.5600000000000001	-0.164332079165102	0.05938867393033853	0.7895935703057539	0.862244823431477	-0.3740428462096135	-0.003825294929227935	-0.4069324825652571	0.9145612650172458	0.9145612650172463	-0.06420197398058626	-0.1745189318066554	0.3401498822368156	0.1602350567778656	-0.5201152458872625	-0.1010766799380712	-0.3678194623097634	1.699206024375135	0.01059214400923639	0.4582348976096296	-0.2571797421913115	1.528912559416938	1.528912559416939	0.1805461387646566	6.052479875339225e-05	0.4779866307462363	0.2169683861685515	-0.0922174463543942	0.02737151961498503	0.005130756321489947	-0.2020155424882678	-0.03176602378379778	0.01974396353386537	0.1130228295625278	-35.13478717299167	-2.720327133151734	0.4923528987895719	4.057226991083779	-460.0974485117875	-74.69589638270376	-6.59553665307631	0.2501120301241286	0.2282072576975655	-0.0168743423930455	-1.619403905130894	0.07204823036775913	-0.6636471997238974	1.236895421546762	-2.123348677388618	-2.123348677388617	-0.3761965737891499	0.05251922947313507	-0.9475967284822437	-0.07264366561429741	-1.237607924497293e-07	-1.900597553095989e-06	1.329973650228723e-06	-1.840777486709805e-07	-2.89073882239809e-07	-1.608506793260951e-06	-2.974636449176134e-07
0.5700000000000001	-0.1695197333458273	0.05838949381264496	0.785915431763566	0.8791529097479018	-0.3739345875518824	0.0007226515087056828	-0.4094428511279266	0.9297417693146176	0.9297417693146132	-0.06241713663288286	-0.1745181982750812	0.3448814461901566	0.1623988209841114	-0.5173591121600454	-0.09874464209647987	-0.3677212333767774	1.682185495870108	0.01105364906271595	0.4512786617584566	-0.2448888719643392	1.506982313001428	1.506982313001427	0.176441264195197	6.024777418760298e-05	0.4682780042333538	0.2157423574827973	-0.09532728911572998	0.02792289500981483	0.004572562185618432	-0.2041070121863051	-0.03302550554113096	0.02056755808036271	0.1154466915790474	-35.59475049393932	-2.979898699616267	0.5136556943803521	4.023978521546298	-462.3891985439946	-75.21089728499271	-6.036816304237512	0.2968188917671694	0.2378719187721372	0.03616832497291242	-1.77725785480794	0.03224197190708643	-0.7232487590341586	1.225947580009552	-2.258703336046767	-2.25870333604695	-0.4248662662947143	-0.03001859848628475	-0.9897968815693455	-0.1537637848146275	-1.29629374725238e-07	-1.554362592648302e-06	1.511123753003112e-06	-1.29641622580539e-07	-3.102778866901393e-07	-1.425584799425888e-06	-2.963159774468645e-07
0.58	-0.174678135219731	0.05741406804764373	0.7822408748734736	0.8958840146729525	-0.3738219057778026	0.005198708191883521	-0.411830158036979	0.9446968030053514	0.9446968030053422	-0.06067279470442773	-0.1745182109997657	0.3495144636245931	0.164549088640548	-0.5142647845229618	-0.09632580939960059	-0.3671031318906522	1.663809746100307	0.01147676727895649	0.443856946658477	-0.2325674114678838	1.483818438089336	1.483818438089334	0.1724470549149236	-8.872645297213268e-05	0.4582773269653481	0.2142690762066971	-0.09843713187706589	0.0284742704046445	0.004014368049748455	-0.2061984818843426	-0.03428498729846418	0.02139115262685982	0.1178705535955668	-36.05307743460657	-3.249027030871388	0.5470713969851013	3.973832359861674	-464.6866242536798	-75.7836380653486	-5.511120138627997	0.3177508120974163	0.2455662287551449	0.08710016823476129	-1.890448158085678	0.06437086291992548	-0.75674304948523	1.243013475443369	-2.370074376704878	-2.370074376704876	-0.3540635159519041	0.02277978895434559	-1.006006879506873	-0.1220941836835171	-1.553963562590216e-07	-9.466421129637096e-07	2.024322576035634e-06	-2.113393643546574e-08	-3.903613935778378e-07	-1.166422299419598e-06	-3.183861577465739e-07
